<?xml version="1.0" encoding="UTF-8" standalone="no"?><!DOCTYPE svg PUBLIC "-//W3C//DTD SVG 1.1//EN" "http://www.w3.org/Graphics/SVG/1.1/DTD/svg11.dtd"><svg width="100%" height="100%" viewBox="0 0 3084 1146" version="1.1" xmlns="http://www.w3.org/2000/svg" xmlns:xlink="http://www.w3.org/1999/xlink" xml:space="preserve" xmlns:serif="http://www.serif.com/" style="fill-rule:evenodd;clip-rule:evenodd;stroke-linejoin:round;stroke-miterlimit:2;"><path d="M3080.24,572.917c-0,-316.202 -256.715,-572.917 -572.917,-572.917l-1937.5,-0c-316.201,-0 -572.916,256.715 -572.916,572.917c-0,316.201 256.715,572.916 572.916,572.916l1937.5,0c316.202,0 572.917,-256.715 572.917,-572.916Z" style="fill:#4d4d4d;"/><path d="M3080.24,572.917c-0,316.201 -256.715,572.916 -572.917,572.916l-1937.5,0c-316.201,0 -572.916,-256.715 -572.916,-572.916c-0,-316.202 256.715,-572.917 572.916,-572.917l1937.5,-0c316.202,-0 572.917,256.715 572.917,572.917Zm-41.667,-0c0,-293.205 -238.045,-531.25 -531.25,-531.25l-1937.5,-0c-293.205,-0 -531.25,238.045 -531.25,531.25c0,293.205 238.045,531.25 531.25,531.25l1937.5,-0c293.205,-0 531.25,-238.045 531.25,-531.25Z" style="fill:#4d4d4d;"/><g><path d="M1319.32,618.027c18,0 33.562,3.188 46.687,9.563c13.125,6.375 24,15 32.625,25.875c8.625,10.875 15,23.625 19.125,38.25c4.125,14.625 6.188,30.375 6.188,47.25c-0,25.875 -4.782,50.343 -14.344,73.406c-9.563,23.062 -22.594,43.125 -39.094,60.187c-16.5,17.063 -36,30.563 -58.5,40.5c-22.5,9.938 -46.875,14.907 -73.125,14.907c-3.375,-0 -9.281,-0.094 -17.719,-0.282c-8.437,-0.187 -18.093,-1.031 -28.968,-2.531c-10.875,-1.5 -22.407,-3.75 -34.594,-6.75c-12.188,-3 -23.719,-7.125 -34.594,-12.375l97.313,-408.937l87.187,-13.5l-34.875,145.125c7.5,-3.375 15,-6 22.5,-7.875c7.5,-1.875 15.563,-2.813 24.188,-2.813Zm-73.125,240.75c13.125,0 25.5,-3.187 37.125,-9.562c11.625,-6.375 21.656,-14.907 30.093,-25.594c8.438,-10.688 15.094,-22.781 19.969,-36.281c4.875,-13.5 7.313,-27.563 7.313,-42.188c-0,-18 -3,-32.062 -9,-42.187c-6,-10.125 -17.063,-15.188 -33.188,-15.188c-5.25,0 -12.094,0.938 -20.531,2.813c-8.438,1.875 -16.031,5.812 -22.781,11.812l-37.125,154.125c2.25,0.375 4.218,0.75 5.906,1.125c1.687,0.375 3.469,0.656 5.344,0.844c1.875,0.187 4.125,0.281 6.75,0.281l10.125,0Z" style="fill:#fff;fill-rule:nonzero;"/><path d="M1517.32,920.09l-83.25,-0l70.312,-295.875l83.813,-0l-70.875,295.875Zm40.5,-331.875c-11.625,-0 -22.125,-3.469 -31.5,-10.407c-9.375,-6.937 -14.063,-17.531 -14.063,-31.781c0,-7.875 1.594,-15.281 4.781,-22.219c3.188,-6.937 7.407,-12.937 12.657,-18c5.25,-5.062 11.343,-9.093 18.281,-12.093c6.937,-3 14.344,-4.5 22.219,-4.5c11.625,-0 22.125,3.468 31.5,10.406c9.375,6.937 14.062,17.531 14.062,31.781c0,7.875 -1.594,15.281 -4.781,22.219c-3.188,6.937 -7.406,12.937 -12.656,18c-5.25,5.062 -11.344,9.094 -18.282,12.094c-6.937,3 -14.343,4.5 -22.218,4.5Z" style="fill:#fff;fill-rule:nonzero;"/><path d="M1661.32,550.527l87.187,-13.5l-21.375,87.188l93.375,-0l-16.875,68.625l-92.812,-0l-24.75,103.5c-2.25,8.625 -3.657,16.687 -4.219,24.187c-0.563,7.5 0.375,13.969 2.812,19.406c2.438,5.438 6.657,9.657 12.657,12.657c6,3 14.25,4.5 24.75,4.5c9,-0 17.718,-0.844 26.156,-2.532c8.437,-1.687 16.969,-4.031 25.594,-7.031l6.187,64.125c-11.25,4.125 -23.437,7.688 -36.562,10.688c-13.125,3 -28.688,4.5 -46.688,4.5c-25.875,-0 -45.937,-3.844 -60.187,-11.532c-14.25,-7.687 -24.375,-18.187 -30.375,-31.5c-6,-13.312 -8.625,-28.593 -7.875,-45.843c0.75,-17.25 3.375,-35.438 7.875,-54.563l55.125,-232.875Z" style="fill:#fff;fill-rule:nonzero;"/><path d="M1810.94,801.965c-0,-25.5 4.125,-49.5 12.375,-72c8.25,-22.5 20.062,-42.188 35.437,-59.063c15.375,-16.875 34.031,-30.187 55.969,-39.937c21.937,-9.75 46.406,-14.625 73.406,-14.625c16.875,-0 31.969,1.593 45.281,4.781c13.313,3.187 25.407,7.406 36.282,12.656l-28.688,65.25c-7.5,-3 -15.281,-5.719 -23.344,-8.156c-8.062,-2.438 -17.906,-3.656 -29.531,-3.656c-28.125,-0 -50.25,9.468 -66.375,28.406c-16.125,18.937 -24.187,44.719 -24.187,77.344c-0,19.125 4.125,34.593 12.375,46.406c8.25,11.812 23.437,17.719 45.562,17.719c10.875,-0 21.375,-1.125 31.5,-3.375c10.125,-2.25 19.125,-5.063 27,-8.438l6.188,66.938c-10.5,4.125 -22.032,7.781 -34.594,10.968c-12.563,3.188 -27.844,4.782 -45.844,4.782c-23.25,-0 -42.937,-3.375 -59.062,-10.125c-16.125,-6.75 -29.438,-15.844 -39.938,-27.282c-10.5,-11.437 -18.094,-24.843 -22.781,-40.218c-4.688,-15.375 -7.031,-31.5 -7.031,-48.375Z" style="fill:#fff;fill-rule:nonzero;"/><path d="M2171.51,927.965c-19.875,-0 -37.125,-3 -51.75,-9c-14.625,-6 -26.719,-14.438 -36.281,-25.313c-9.563,-10.875 -16.781,-23.719 -21.656,-38.531c-4.875,-14.813 -7.313,-31.219 -7.313,-49.219c0,-22.5 3.656,-45 10.969,-67.5c7.312,-22.5 18.094,-42.75 32.344,-60.75c14.25,-18 31.687,-32.719 52.312,-44.156c20.625,-11.438 44.25,-17.156 70.875,-17.156c19.5,-0 36.656,3 51.469,9c14.812,6 27,14.437 36.562,25.312c9.563,10.875 16.782,23.719 21.657,38.531c4.875,14.813 7.312,31.219 7.312,49.219c0,22.5 -3.562,45 -10.687,67.5c-7.125,22.5 -17.625,42.75 -31.5,60.75c-13.875,18 -31.219,32.719 -52.032,44.156c-20.812,11.438 -44.906,17.157 -72.281,17.157Zm41.625,-240.75c-12.375,-0 -23.25,3.562 -32.625,10.687c-9.375,7.125 -17.25,16.125 -23.625,27c-6.375,10.875 -11.156,22.781 -14.344,35.719c-3.187,12.937 -4.781,25.219 -4.781,36.844c0,19.125 3,33.843 9,44.156c6,10.312 16.875,15.469 32.625,15.469c12.375,-0 23.25,-3.563 32.625,-10.688c9.375,-7.125 17.25,-16.125 23.625,-27c6.375,-10.875 11.156,-22.781 14.344,-35.719c3.187,-12.937 4.781,-25.218 4.781,-36.843c0,-19.125 -3,-33.844 -9,-44.157c-6,-10.312 -16.875,-15.468 -32.625,-15.468Z" style="fill:#fff;fill-rule:nonzero;"/><path d="M2431.38,920.09l-83.25,-0l70.313,-295.875l83.812,-0l-70.875,295.875Zm40.5,-331.875c-11.625,-0 -22.125,-3.469 -31.5,-10.407c-9.375,-6.937 -14.062,-17.531 -14.062,-31.781c-0,-7.875 1.593,-15.281 4.781,-22.219c3.187,-6.937 7.406,-12.937 12.656,-18c5.25,-5.062 11.344,-9.093 18.281,-12.093c6.938,-3 14.344,-4.5 22.219,-4.5c11.625,-0 22.125,3.468 31.5,10.406c9.375,6.937 14.063,17.531 14.063,31.781c-0,7.875 -1.594,15.281 -4.782,22.219c-3.187,6.937 -7.406,12.937 -12.656,18c-5.25,5.062 -11.344,9.094 -18.281,12.094c-6.938,3 -14.344,4.5 -22.219,4.5Z" style="fill:#fff;fill-rule:nonzero;"/><path d="M2563.01,637.715c6.375,-1.875 13.406,-4.032 21.094,-6.469c7.687,-2.438 16.312,-4.688 25.875,-6.75c9.562,-2.063 20.25,-3.75 32.062,-5.063c11.813,-1.312 25.219,-1.968 40.219,-1.968c44.25,-0 74.625,12.75 91.125,38.25c16.5,25.5 19.313,60.375 8.438,104.625l-38.25,159.75l-83.813,-0l37.125,-156.375c2.25,-9.75 4.031,-19.219 5.344,-28.407c1.312,-9.187 1.219,-17.25 -0.281,-24.187c-1.5,-6.938 -4.969,-12.563 -10.407,-16.875c-5.437,-4.313 -13.781,-6.469 -25.031,-6.469c-10.875,0 -21.937,1.125 -33.187,3.375l-54.563,228.938l-83.812,-0l68.062,-282.375Z" style="fill:#fff;fill-rule:nonzero;"/></g><g><path d="M1328.17,239.207c10.117,-0 19.23,1.081 27.34,3.244c8.109,2.163 14.974,5.287 20.595,9.373c5.62,4.085 9.956,9.092 13.007,15.02c3.051,5.928 4.577,12.577 4.577,19.947c-0,12.016 -2.329,22.19 -6.986,30.521c-4.657,8.332 -11.08,15.061 -19.27,20.188c-8.19,5.127 -17.825,8.811 -28.905,11.055c-11.081,2.243 -23.124,3.364 -36.132,3.364l-9.394,0l-13.489,55.755l-37.336,0l39.263,-164.142c8.671,-1.602 16.901,-2.723 24.69,-3.364c7.788,-0.641 15.135,-0.961 22.04,-0.961Zm-3.131,31.482c-2.73,0 -5.059,0.08 -6.986,0.241c-1.927,0.16 -3.854,0.32 -5.781,0.48l-11.562,49.026l9.394,0c6.745,0 12.887,-0.52 18.427,-1.562c5.541,-1.041 10.278,-2.763 14.212,-5.167c3.934,-2.403 6.986,-5.487 9.153,-9.252c2.168,-3.765 3.252,-8.371 3.252,-13.819c0,-7.21 -2.609,-12.337 -7.828,-15.381c-5.219,-3.044 -12.646,-4.566 -22.281,-4.566Z" style="fill:#fff;fill-rule:nonzero;"/><path d="M1489.32,407.674c-0.321,-6.248 -0.682,-12.376 -1.084,-18.384c-0.401,-6.008 -0.843,-11.977 -1.325,-17.905l-62.628,0c-3.211,5.928 -6.584,11.897 -10.117,17.905c-3.532,6.008 -6.905,12.136 -10.116,18.384l-39.264,0c10.438,-17.944 20.194,-34.526 29.267,-49.747c9.073,-15.22 17.825,-29.56 26.256,-43.018c8.43,-13.458 16.66,-26.235 24.69,-38.332c8.029,-12.096 16.219,-23.912 24.569,-35.448l33.482,0c2.57,11.536 5.019,24.313 7.347,38.332c2.329,14.019 4.496,28.358 6.504,43.018c2.007,14.66 3.854,29.32 5.54,43.98c1.686,14.66 3.252,28.398 4.697,41.215l-37.818,0Zm-11.08,-130.015c-6.745,10.734 -13.369,21.389 -19.873,31.963c-6.503,10.574 -12.806,21.389 -18.908,32.444l45.044,-0c-0.803,-9.773 -1.646,-20.188 -2.53,-31.243c-0.883,-11.054 -2.127,-22.109 -3.733,-33.164Z" style="fill:#fff;fill-rule:nonzero;"/><path d="M1610.96,309.622c4.657,-5.928 9.114,-11.656 13.369,-17.183c4.256,-5.528 8.391,-11.055 12.405,-16.583c4.015,-5.527 7.99,-11.135 11.924,-16.823c3.934,-5.687 7.989,-11.655 12.164,-17.904l41.431,0c-6.744,9.453 -13.248,18.425 -19.511,26.917c-6.263,8.491 -12.526,16.782 -18.788,24.873c-6.263,8.091 -12.687,16.142 -19.271,24.153c-6.584,8.011 -13.569,16.262 -20.956,24.753l-15.898,65.849l-37.577,0l15.898,-65.849c-6.745,-16.983 -12.847,-33.565 -18.307,-49.747c-5.46,-16.182 -10.598,-33.165 -15.416,-50.949l39.986,0c2.569,11.536 5.379,22.831 8.431,33.886c3.051,11.055 6.423,22.591 10.116,34.607Z" style="fill:#fff;fill-rule:nonzero;"/><path d="M1887.01,258.913c0.322,6.569 0.763,14.019 1.325,22.351c0.562,8.331 1.205,16.942 1.927,25.834c0.723,8.892 1.486,17.744 2.289,26.556c0.802,8.812 1.605,16.983 2.408,24.514c4.176,-8.172 8.431,-16.983 12.767,-26.436c4.336,-9.453 8.671,-19.226 13.007,-29.32c4.336,-10.094 8.632,-20.347 12.887,-30.762c4.256,-10.414 8.31,-20.587 12.165,-30.521l39.744,0c-12.525,30.441 -25.292,59.401 -38.299,86.878c-13.008,27.477 -26.979,54.033 -41.913,79.667l-35.168,0c-1.285,-8.811 -2.449,-17.263 -3.493,-25.354c-1.044,-8.091 -2.007,-16.062 -2.89,-23.912c-0.884,-7.851 -1.686,-15.781 -2.409,-23.792c-0.723,-8.011 -1.405,-16.342 -2.048,-24.994c-9.153,16.983 -18.186,33.605 -27.098,49.867c-8.913,16.262 -18.427,32.324 -28.544,48.185l-35.168,0c-1.285,-14.9 -2.209,-29.64 -2.771,-44.219c-0.562,-14.58 -0.843,-29.4 -0.843,-44.46c0,-12.978 0.241,-25.916 0.723,-38.813c0.482,-12.897 1.124,-25.915 1.927,-39.053l37.818,0c-0.803,14.099 -1.566,27.918 -2.289,41.456c-0.722,13.539 -1.083,27.598 -1.083,42.177l-0,16.583c-0,5.607 0.16,11.215 0.481,16.823c4.497,-7.851 9.234,-16.182 14.212,-24.994c4.978,-8.812 9.876,-17.624 14.694,-26.436c4.817,-8.812 9.394,-17.343 13.73,-25.595c4.335,-8.251 8.029,-15.661 11.08,-22.23l30.832,0Z" style="fill:#fff;fill-rule:nonzero;"/><path d="M2009.86,241.129l37.577,0l-40.227,166.545l-37.336,0l39.986,-166.545Z" style="fill:#fff;fill-rule:nonzero;"/><path d="M2204.97,241.129l-7.708,31.483l-48.898,-0l-32.519,135.062l-37.577,0l32.519,-135.062l-48.898,-0l7.708,-31.483l135.373,0Z" style="fill:#fff;fill-rule:nonzero;"/><path d="M2324.92,241.129l37.577,0l-40.227,166.545l-37.577,0l17.103,-70.895l-59.256,-0l-17.102,70.895l-37.337,0l39.986,-166.545l37.577,0l-15.416,63.927l59.256,-0l15.416,-63.927Z" style="fill:#fff;fill-rule:nonzero;"/></g><g><path d="M1038.21,686.807c-62.879,252.209 -318.325,405.7 -570.564,342.806c-252.136,-62.879 -405.627,-318.34 -342.718,-570.534c62.85,-252.239 318.296,-405.745 570.461,-342.866c252.224,62.88 405.701,318.37 342.821,570.594Z" style="fill:#f7931a;fill-rule:nonzero;"/><path d="M789.131,505.848c9.372,-62.644 -38.325,-96.32 -103.543,-118.785l21.156,-84.859l-51.654,-12.874l-20.597,82.624c-13.58,-3.384 -27.527,-6.577 -41.385,-9.74l20.744,-83.167l-51.625,-12.873l-21.171,84.83c-11.24,-2.56 -22.274,-5.091 -32.984,-7.754l0.058,-0.265l-71.235,-17.787l-13.742,55.171c0,-0 38.325,8.783 37.516,9.327c20.921,5.223 24.702,19.067 24.069,30.042l-24.098,96.674c1.442,0.367 3.31,0.897 5.37,1.721c-1.722,-0.427 -3.561,-0.898 -5.458,-1.354l-33.779,135.425c-2.56,6.356 -9.048,15.889 -23.672,12.27c0.515,0.75 -37.545,-9.372 -37.545,-9.372l-25.644,59.128l67.22,16.757c12.505,3.134 24.76,6.415 36.824,9.504l-21.376,85.831l51.595,12.873l21.171,-84.918c14.094,3.825 27.776,7.356 41.164,10.681l-21.097,84.521l51.654,12.873l21.377,-85.669c88.081,16.669 154.315,9.945 182.194,-69.721c22.466,-64.144 -1.118,-101.145 -47.461,-125.273c33.75,-7.783 59.172,-29.983 65.954,-75.841Zm-118.02,165.497c-15.963,64.144 -123.964,29.468 -158.979,20.773l28.365,-113.71c35.015,8.739 147.298,26.041 130.614,92.937Zm15.977,-166.424c-14.565,58.349 -104.455,28.704 -133.615,21.436l25.717,-103.132c29.159,7.268 123.066,20.832 107.898,81.696Z" style="fill:#fff;fill-rule:nonzero;"/></g></svg>